# MagicaVoxel @ Ephtracy

# group
o player

# material
mtllib player-test.mtl
usemtl palette

# normals
vn -1 0 0
vn 1 0 0
vn 0 -1 0
vn 0 1 0
vn 0 0 -1
vn 0 0 1

# texcoords
vt 0.00195313 0.5
vt 0.443359 0.5
vt 0.876953 0.5

# verts
v -1.6 2 -0.3
v -1.6 2.4 -0.3
v -1.6 2 -0.1
v -1.6 2.4 -0.1
v -0.4 0 -0.3
v -0.4 2 -0.3
v -0.4 2.4 -0.3
v -0.4 3.2 -0.3
v -0.4 0.1 -0.1
v -0.4 2 -0.1
v -0.4 2.4 -0.1
v -0.4 3.2 -0.1
v -0.4 0 0.2
v -0.4 0.1 0.2
v 0.1 0 -0.3
v 0.1 1.2 -0.3
v 0.1 0.1 -0.1
v 0.1 1.2 -0.1
v 0.1 0 0.2
v 0.1 0.1 0.2
v -0.1 0 -0.3
v -0.1 1.2 -0.3
v -0.1 0.1 -0.1
v -0.1 1.2 -0.1
v -0.1 0 0.2
v -0.1 0.1 0.2
v 0.4 0 -0.3
v 0.4 2 -0.3
v 0.4 2.4 -0.3
v 0.4 3.2 -0.3
v 0.4 0.1 -0.1
v 0.4 2 -0.1
v 0.4 2.4 -0.1
v 0.4 3.2 -0.1
v 0.4 0 0.2
v 0.4 0.1 0.2
v 1.6 2 -0.3
v 1.6 2.4 -0.3
v 1.6 2 -0.1
v 1.6 2.4 -0.1
v -0.4 0 -0.3
v -0.4 0 0.2
v -0.1 0 -0.3
v -0.1 0 0.2
v 0.1 0 -0.3
v 0.1 0 0.2
v 0.4 0 -0.3
v 0.4 0 0.2
v -0.1 1.2 -0.3
v -0.1 1.2 -0.1
v 0.1 1.2 -0.3
v 0.1 1.2 -0.1
v -1.6 2 -0.3
v -1.6 2 -0.1
v -0.4 2 -0.3
v -0.4 2 -0.1
v 0.4 2 -0.3
v 0.4 2 -0.1
v 1.6 2 -0.3
v 1.6 2 -0.1
v -0.4 0.1 -0.1
v -0.4 0.1 0.2
v -0.3 0.1 -0.1
v -0.2 0.1 -0.1
v -0.1 0.1 -0.1
v -0.1 0.1 0.2
v 0.1 0.1 -0.1
v 0.1 0.1 0.2
v 0.2 0.1 -0.1
v 0.3 0.1 -0.1
v 0.4 0.1 -0.1
v 0.4 0.1 0.2
v -1.6 2.4 -0.3
v -1.6 2.4 -0.1
v -0.4 2.4 -0.3
v -0.4 2.4 -0.1
v 0.4 2.4 -0.3
v 0.4 2.4 -0.1
v 1.6 2.4 -0.3
v 1.6 2.4 -0.1
v -0.4 3.2 -0.3
v -0.4 3.2 -0.1
v 0.4 3.2 -0.3
v 0.4 3.2 -0.1
v -0.4 0 -0.3
v -0.1 0 -0.3
v 0.1 0 -0.3
v 0.4 0 -0.3
v -0.3 0.1 -0.3
v -0.2 0.1 -0.3
v 0.2 0.1 -0.3
v 0.3 0.1 -0.3
v -0.3 1.1 -0.3
v -0.2 1.1 -0.3
v 0.2 1.1 -0.3
v 0.3 1.1 -0.3
v -0.1 1.2 -0.3
v 0.1 1.2 -0.3
v -0.3 1.3 -0.3
v 0.3 1.3 -0.3
v -1.6 2 -0.3
v -0.4 2 -0.3
v 0.4 2 -0.3
v 1.6 2 -0.3
v -1.5 2.1 -0.3
v -0.5 2.1 -0.3
v 0.4 2.1 -0.3
v 1.5 2.1 -0.3
v -1.5 2.3 -0.3
v -0.5 2.3 -0.3
v -0.3 2.3 -0.3
v 0.3 2.3 -0.3
v 0.4 2.3 -0.3
v 1.5 2.3 -0.3
v -1.6 2.4 -0.3
v -0.4 2.4 -0.3
v 0.4 2.4 -0.3
v 1.6 2.4 -0.3
v -0.3 2.5 -0.3
v 0.3 2.5 -0.3
v -0.3 3.1 -0.3
v 0.3 3.1 -0.3
v -0.4 3.2 -0.3
v 0.4 3.2 -0.3
v -0.4 0.1 -0.1
v -0.3 0.1 -0.1
v -0.2 0.1 -0.1
v -0.1 0.1 -0.1
v 0.1 0.1 -0.1
v 0.2 0.1 -0.1
v 0.3 0.1 -0.1
v 0.4 0.1 -0.1
v -0.3 1.1 -0.1
v -0.2 1.1 -0.1
v 0.2 1.1 -0.1
v 0.3 1.1 -0.1
v -0.1 1.2 -0.1
v 0.1 1.2 -0.1
v -0.3 1.3 -0.1
v 0.3 1.3 -0.1
v -0.1 1.5 -0.1
v 0.1 1.5 -0.1
v -0.1 1.6 -0.1
v 0.1 1.6 -0.1
v -0.1 1.7 -0.1
v 0.1 1.7 -0.1
v -0.1 1.8 -0.1
v 0.1 1.8 -0.1
v -1.6 2 -0.1
v -0.4 2 -0.1
v 0.4 2 -0.1
v 1.6 2 -0.1
v -1.5 2.1 -0.1
v -0.5 2.1 -0.1
v 0.4 2.1 -0.1
v 1.5 2.1 -0.1
v -1.5 2.3 -0.1
v -0.5 2.3 -0.1
v -0.3 2.3 -0.1
v 0.3 2.3 -0.1
v 0.4 2.3 -0.1
v 1.5 2.3 -0.1
v -1.6 2.4 -0.1
v -0.4 2.4 -0.1
v 0.4 2.4 -0.1
v 1.6 2.4 -0.1
v -0.3 2.5 -0.1
v 0.3 2.5 -0.1
v -0.2 2.8 -0.1
v -0.1 2.8 -0.1
v 0.1 2.8 -0.1
v 0.2 2.8 -0.1
v -0.2 2.9 -0.1
v -0.1 2.9 -0.1
v 0.1 2.9 -0.1
v 0.2 2.9 -0.1
v -0.3 3.1 -0.1
v 0.3 3.1 -0.1
v -0.4 3.2 -0.1
v 0.4 3.2 -0.1
v -0.4 0 0.2
v -0.1 0 0.2
v 0.1 0 0.2
v 0.4 0 0.2
v -0.4 0.1 0.2
v -0.1 0.1 0.2
v 0.1 0.1 0.2
v 0.4 0.1 0.2

# faces
f 3/3/1 2/3/1 1/3/1
f 4/3/1 2/3/1 3/3/1
f 9/3/1 6/3/1 5/3/1
f 10/3/1 6/3/1 9/3/1
f 11/3/1 8/3/1 7/3/1
f 12/3/1 8/3/1 11/3/1
f 13/3/1 9/3/1 5/3/1
f 14/3/1 9/3/1 13/3/1
f 17/3/1 16/3/1 15/3/1
f 18/3/1 16/3/1 17/3/1
f 19/3/1 17/3/1 15/3/1
f 20/3/1 17/3/1 19/3/1
f 21/3/2 22/3/2 23/3/2
f 23/3/2 22/3/2 24/3/2
f 21/3/2 23/3/2 25/3/2
f 25/3/2 23/3/2 26/3/2
f 27/3/2 28/3/2 31/3/2
f 31/3/2 28/3/2 32/3/2
f 29/3/2 30/3/2 33/3/2
f 33/3/2 30/3/2 34/3/2
f 27/3/2 31/3/2 35/3/2
f 35/3/2 31/3/2 36/3/2
f 37/3/2 38/3/2 39/3/2
f 39/3/2 38/3/2 40/3/2
f 43/3/3 42/3/3 41/3/3
f 44/3/3 42/3/3 43/3/3
f 47/3/3 46/3/3 45/3/3
f 48/3/3 46/3/3 47/3/3
f 51/3/3 50/3/3 49/3/3
f 52/3/3 50/3/3 51/3/3
f 55/3/3 54/3/3 53/3/3
f 56/3/3 54/3/3 55/3/3
f 59/3/3 58/3/3 57/3/3
f 60/3/3 58/3/3 59/3/3
f 61/3/4 62/3/4 63/3/4
f 63/3/4 62/3/4 64/3/4
f 64/3/4 62/3/4 65/3/4
f 65/3/4 62/3/4 66/3/4
f 67/3/4 68/3/4 69/3/4
f 69/3/4 68/3/4 70/3/4
f 70/3/4 68/3/4 71/3/4
f 71/3/4 68/3/4 72/3/4
f 73/3/4 74/3/4 75/3/4
f 75/3/4 74/3/4 76/3/4
f 77/3/4 78/3/4 79/3/4
f 79/3/4 78/3/4 80/3/4
f 81/3/4 82/3/4 83/3/4
f 83/3/4 82/3/4 84/3/4
f 89/3/5 86/3/5 85/3/5
f 90/3/5 86/3/5 89/3/5
f 91/3/5 88/3/5 87/3/5
f 92/3/5 88/3/5 91/3/5
f 93/3/5 89/3/5 85/3/5
f 93/2/5 90/2/5 89/2/5
f 94/3/5 86/3/5 90/3/5
f 94/2/5 90/2/5 93/2/5
f 95/2/5 92/2/5 91/2/5
f 95/3/5 91/3/5 87/3/5
f 96/3/5 88/3/5 92/3/5
f 96/2/5 92/2/5 95/2/5
f 97/3/5 86/3/5 94/3/5
f 97/3/5 94/3/5 93/3/5
f 98/3/5 95/3/5 87/3/5
f 98/3/5 96/3/5 95/3/5
f 99/3/5 93/3/5 85/3/5
f 99/3/5 98/3/5 97/3/5
f 99/3/5 97/3/5 93/3/5
f 100/3/5 96/3/5 98/3/5
f 100/3/5 98/3/5 99/3/5
f 100/3/5 88/3/5 96/3/5
f 102/3/5 99/3/5 85/3/5
f 103/3/5 88/3/5 100/3/5
f 105/3/5 102/3/5 101/3/5
f 106/3/5 102/3/5 105/3/5
f 107/3/5 104/3/5 103/3/5
f 107/3/5 103/3/5 100/3/5
f 108/3/5 104/3/5 107/3/5
f 109/2/5 106/2/5 105/2/5
f 109/3/5 105/3/5 101/3/5
f 110/3/5 102/3/5 106/3/5
f 110/2/5 106/2/5 109/2/5
f 111/2/5 100/2/5 99/2/5
f 111/3/5 102/3/5 110/3/5
f 111/3/5 99/3/5 102/3/5
f 112/3/5 107/3/5 100/3/5
f 112/2/5 100/2/5 111/2/5
f 113/2/5 108/2/5 107/2/5
f 113/3/5 107/3/5 112/3/5
f 114/3/5 104/3/5 108/3/5
f 114/2/5 108/2/5 113/2/5
f 115/3/5 109/3/5 101/3/5
f 115/3/5 110/3/5 109/3/5
f 115/3/5 114/3/5 113/3/5
f 115/3/5 112/3/5 111/3/5
f 115/3/5 113/3/5 112/3/5
f 115/3/5 111/3/5 110/3/5
f 116/3/5 114/3/5 115/3/5
f 117/3/5 114/3/5 116/3/5
f 118/3/5 104/3/5 114/3/5
f 118/3/5 114/3/5 117/3/5
f 119/3/5 117/3/5 116/3/5
f 120/3/5 117/3/5 119/3/5
f 121/3/5 119/3/5 116/3/5
f 121/1/5 120/1/5 119/1/5
f 122/3/5 117/3/5 120/3/5
f 122/1/5 120/1/5 121/1/5
f 123/3/5 121/3/5 116/3/5
f 123/3/5 122/3/5 121/3/5
f 124/3/5 117/3/5 122/3/5
f 124/3/5 122/3/5 123/3/5
f 125/3/6 126/3/6 133/3/6
f 126/2/6 127/2/6 133/2/6
f 127/3/6 128/3/6 134/3/6
f 133/2/6 127/2/6 134/2/6
f 130/2/6 131/2/6 135/2/6
f 129/3/6 130/3/6 135/3/6
f 131/3/6 132/3/6 136/3/6
f 135/2/6 131/2/6 136/2/6
f 134/3/6 128/3/6 137/3/6
f 133/3/6 134/3/6 137/3/6
f 129/3/6 135/3/6 138/3/6
f 135/3/6 136/3/6 138/3/6
f 133/3/6 137/3/6 139/3/6
f 137/3/6 138/3/6 139/3/6
f 125/3/6 133/3/6 139/3/6
f 138/3/6 136/3/6 140/3/6
f 139/3/6 138/3/6 140/3/6
f 136/3/6 132/3/6 140/3/6
f 139/2/6 140/2/6 141/2/6
f 141/2/6 140/2/6 142/2/6
f 139/2/6 141/2/6 143/2/6
f 141/3/6 142/3/6 143/3/6
f 142/2/6 140/2/6 144/2/6
f 143/3/6 142/3/6 144/3/6
f 139/2/6 143/2/6 145/2/6
f 143/2/6 144/2/6 145/2/6
f 144/2/6 140/2/6 146/2/6
f 145/2/6 144/2/6 146/2/6
f 139/2/6 145/2/6 147/2/6
f 145/3/6 146/3/6 147/3/6
f 146/2/6 140/2/6 148/2/6
f 147/3/6 146/3/6 148/3/6
f 125/3/6 139/3/6 150/3/6
f 140/3/6 132/3/6 151/3/6
f 149/3/6 150/3/6 153/3/6
f 153/3/6 150/3/6 154/3/6
f 151/3/6 152/3/6 155/3/6
f 140/3/6 151/3/6 155/3/6
f 155/3/6 152/3/6 156/3/6
f 153/2/6 154/2/6 157/2/6
f 149/3/6 153/3/6 157/3/6
f 154/3/6 150/3/6 158/3/6
f 157/2/6 154/2/6 158/2/6
f 139/2/6 147/2/6 159/2/6
f 158/3/6 150/3/6 159/3/6
f 147/2/6 148/2/6 159/2/6
f 150/3/6 139/3/6 159/3/6
f 148/2/6 140/2/6 160/2/6
f 159/2/6 148/2/6 160/2/6
f 140/3/6 155/3/6 160/3/6
f 155/2/6 156/2/6 161/2/6
f 160/3/6 155/3/6 161/3/6
f 156/3/6 152/3/6 162/3/6
f 161/2/6 156/2/6 162/2/6
f 158/3/6 159/3/6 163/3/6
f 149/3/6 157/3/6 163/3/6
f 161/3/6 162/3/6 163/3/6
f 159/3/6 160/3/6 163/3/6
f 157/3/6 158/3/6 163/3/6
f 160/3/6 161/3/6 163/3/6
f 163/3/6 162/3/6 164/3/6
f 164/3/6 162/3/6 165/3/6
f 162/3/6 152/3/6 166/3/6
f 165/3/6 162/3/6 166/3/6
f 164/3/6 165/3/6 167/3/6
f 167/3/6 165/3/6 168/3/6
f 167/1/6 168/1/6 169/1/6
f 169/1/6 168/1/6 170/1/6
f 170/1/6 168/1/6 171/1/6
f 171/1/6 168/1/6 172/1/6
f 167/1/6 169/1/6 173/1/6
f 169/3/6 170/3/6 173/3/6
f 170/1/6 171/1/6 174/1/6
f 173/3/6 170/3/6 174/3/6
f 171/3/6 172/3/6 175/3/6
f 174/1/6 171/1/6 175/1/6
f 172/1/6 168/1/6 176/1/6
f 175/3/6 172/3/6 176/3/6
f 164/3/6 167/3/6 177/3/6
f 174/1/6 175/1/6 177/1/6
f 175/1/6 176/1/6 177/1/6
f 167/1/6 173/1/6 177/1/6
f 173/1/6 174/1/6 177/1/6
f 176/1/6 168/1/6 178/1/6
f 177/1/6 176/1/6 178/1/6
f 168/3/6 165/3/6 178/3/6
f 164/3/6 177/3/6 179/3/6
f 177/3/6 178/3/6 179/3/6
f 178/3/6 165/3/6 180/3/6
f 179/3/6 178/3/6 180/3/6
f 181/3/6 182/3/6 185/3/6
f 185/3/6 182/3/6 186/3/6
f 183/3/6 184/3/6 187/3/6
f 187/3/6 184/3/6 188/3/6
